<mxfile host="app.diagrams.net" modified="2022-12-07T07:46:42.730Z" agent="5.0 (Windows NT 10.0; Win64; x64) AppleWebKit/537.36 (KHTML, like Gecko) Chrome/108.0.0.0 Safari/537.36" version="20.6.0" etag="JyNO9hwsbeKLM1dwwBp4" type="github">
  <diagram id="pLQpTA3qjlWy9otWFY8U" name="Page-1">
    <mxGraphModel dx="1316" dy="802" grid="1" gridSize="10" guides="1" tooltips="1" connect="1" arrows="1" fold="1" page="1" pageScale="1" pageWidth="1100" pageHeight="850" math="0" shadow="0">
      <root>
        <mxCell id="0" />
        <mxCell id="1" parent="0" />
        <mxCell id="bdOjsI9Eu3mLzu6R5T6B-1" value="" style="ellipse;html=1;shape=startState;fillColor=#000000;strokeColor=#ff0000;" vertex="1" parent="1">
          <mxGeometry x="120" y="40" width="30" height="30" as="geometry" />
        </mxCell>
        <mxCell id="bdOjsI9Eu3mLzu6R5T6B-2" value="" style="edgeStyle=orthogonalEdgeStyle;html=1;verticalAlign=bottom;endArrow=open;endSize=8;strokeColor=#ff0000;rounded=0;entryX=0.5;entryY=0;entryDx=0;entryDy=0;" edge="1" source="bdOjsI9Eu3mLzu6R5T6B-1" parent="1" target="bdOjsI9Eu3mLzu6R5T6B-5">
          <mxGeometry relative="1" as="geometry">
            <mxPoint x="135" y="130" as="targetPoint" />
          </mxGeometry>
        </mxCell>
        <mxCell id="bdOjsI9Eu3mLzu6R5T6B-7" style="edgeStyle=orthogonalEdgeStyle;rounded=0;orthogonalLoop=1;jettySize=auto;html=1;exitX=0.5;exitY=1;exitDx=0;exitDy=0;entryX=0.5;entryY=0;entryDx=0;entryDy=0;" edge="1" parent="1" source="bdOjsI9Eu3mLzu6R5T6B-5" target="bdOjsI9Eu3mLzu6R5T6B-6">
          <mxGeometry relative="1" as="geometry" />
        </mxCell>
        <mxCell id="bdOjsI9Eu3mLzu6R5T6B-5" value="Read event payload" style="rounded=1;whiteSpace=wrap;html=1;" vertex="1" parent="1">
          <mxGeometry x="75" y="100" width="120" height="60" as="geometry" />
        </mxCell>
        <mxCell id="bdOjsI9Eu3mLzu6R5T6B-9" style="edgeStyle=orthogonalEdgeStyle;rounded=0;orthogonalLoop=1;jettySize=auto;html=1;exitX=1;exitY=0.5;exitDx=0;exitDy=0;entryX=0;entryY=0.5;entryDx=0;entryDy=0;fontSize=10;" edge="1" parent="1" source="bdOjsI9Eu3mLzu6R5T6B-6" target="bdOjsI9Eu3mLzu6R5T6B-8">
          <mxGeometry relative="1" as="geometry" />
        </mxCell>
        <mxCell id="bdOjsI9Eu3mLzu6R5T6B-6" value="Validate contact data&lt;br&gt;&lt;font style=&quot;font-size: 10px;&quot;&gt;(at least one of firstName lastName companyName is not blank)&lt;/font&gt;" style="rounded=1;whiteSpace=wrap;html=1;" vertex="1" parent="1">
          <mxGeometry x="67.5" y="200" width="135" height="60" as="geometry" />
        </mxCell>
        <mxCell id="bdOjsI9Eu3mLzu6R5T6B-11" value="No" style="edgeStyle=orthogonalEdgeStyle;rounded=0;orthogonalLoop=1;jettySize=auto;html=1;exitX=0.5;exitY=0;exitDx=0;exitDy=0;fontSize=12;" edge="1" parent="1" source="bdOjsI9Eu3mLzu6R5T6B-8" target="bdOjsI9Eu3mLzu6R5T6B-10">
          <mxGeometry relative="1" as="geometry" />
        </mxCell>
        <mxCell id="bdOjsI9Eu3mLzu6R5T6B-13" style="edgeStyle=orthogonalEdgeStyle;rounded=0;orthogonalLoop=1;jettySize=auto;html=1;exitX=1;exitY=0.5;exitDx=0;exitDy=0;entryX=0;entryY=0.5;entryDx=0;entryDy=0;fontSize=12;" edge="1" parent="1" source="bdOjsI9Eu3mLzu6R5T6B-8" target="bdOjsI9Eu3mLzu6R5T6B-12">
          <mxGeometry relative="1" as="geometry" />
        </mxCell>
        <mxCell id="bdOjsI9Eu3mLzu6R5T6B-8" value="is valid?" style="rhombus;whiteSpace=wrap;html=1;fontSize=12;" vertex="1" parent="1">
          <mxGeometry x="260" y="190" width="80" height="80" as="geometry" />
        </mxCell>
        <mxCell id="bdOjsI9Eu3mLzu6R5T6B-10" value="" style="ellipse;html=1;shape=endState;fillColor=#000000;strokeColor=#ff0000;fontSize=12;" vertex="1" parent="1">
          <mxGeometry x="285" y="40" width="30" height="30" as="geometry" />
        </mxCell>
        <mxCell id="bdOjsI9Eu3mLzu6R5T6B-15" style="edgeStyle=orthogonalEdgeStyle;rounded=0;orthogonalLoop=1;jettySize=auto;html=1;exitX=0.5;exitY=0;exitDx=0;exitDy=0;entryX=0.5;entryY=1;entryDx=0;entryDy=0;fontSize=12;dashed=1;startArrow=classic;startFill=1;" edge="1" parent="1" source="bdOjsI9Eu3mLzu6R5T6B-12" target="bdOjsI9Eu3mLzu6R5T6B-14">
          <mxGeometry relative="1" as="geometry" />
        </mxCell>
        <mxCell id="bdOjsI9Eu3mLzu6R5T6B-17" style="edgeStyle=orthogonalEdgeStyle;rounded=0;orthogonalLoop=1;jettySize=auto;html=1;exitX=0.5;exitY=1;exitDx=0;exitDy=0;entryX=0.5;entryY=0;entryDx=0;entryDy=0;fontSize=12;startArrow=none;startFill=0;" edge="1" parent="1" source="bdOjsI9Eu3mLzu6R5T6B-12" target="bdOjsI9Eu3mLzu6R5T6B-16">
          <mxGeometry relative="1" as="geometry" />
        </mxCell>
        <mxCell id="bdOjsI9Eu3mLzu6R5T6B-12" value="search contact" style="rounded=1;whiteSpace=wrap;html=1;fontSize=12;" vertex="1" parent="1">
          <mxGeometry x="430" y="200" width="120" height="60" as="geometry" />
        </mxCell>
        <mxCell id="bdOjsI9Eu3mLzu6R5T6B-14" value="" style="shape=image;verticalLabelPosition=bottom;labelBackgroundColor=default;verticalAlign=top;aspect=fixed;imageAspect=0;image=data:image/png,iVBORw0KGgoAAAANSUhEUgAAAIgAAAA1CAYAAACa7qP5AAAAAXNSR0IArs4c6QAAAARnQU1BAACxjwv8YQUAAAAJcEhZcwAADsMAAA7DAcdvqGQAAA54SURBVHhe7ZwJdBRFGse/yeQcEszBFYEA0YggaGDhcfm8VhQDq7BZFSXKZfDikHDIogtyJMsqlyToIgoqARYl64qACAKKCAoYXGVBH4sERAiBHJCQO5mt/9ddk85kptMZwiw++/deva7u6a7urvr6u6oSi11AJiZu8FG3JiYuMQXERBdTQEx0MQXERBdTQEx0MQXERBdTQEx0MQXERBdTQEx0MTOpV4DqnNO89QmNIPIP4PqvFVNAGhH7xQIqeWMOVR//nvct17SgwCdnkrVdDO97RHkZVRfk/t+EzRSQRqQ4ZSzZ886IgQxSDlRVkr0oj4IXfeTR4Fbs3U5laxeKdip4PzBxFvnG9uG6tzB9kEai6sTR2sIBrL5kCQqhim92qweMg/bK0v9GluAw1kQopUunOsyXtzAF5Cql6viPLFxaICSVhzPVPe9gCogTuXn5aq1hWCOjiELC2azUQmiU8q3/aPCXD5/DXl6q7ilg3xKg0VBewK0PMmDo02pN+EkVlbR6aTJFtmqhHqnLyVOnaczkOeqecs2OjOXq3uXz7feHae7iNynEFkSFxSU0+N7bKeGhB9RfPedMdg5lfLSVNm7/knILCtWjRL1jO9Ej8XHUt2c39Uj9VB75lsremuMYWIt/IG/J6sd+REDCZMM+BBze4nljFYETpoq3oo0mKWu86qy61SA5eRcdJevMefWoPqfP5XNpyDVGKS4to10Hf6RvDh+jfYeOUcGFmsH0lPT3PqR7h42nhSsz+JklVdV22vn1dzR07Es0ctwLLERG8O0US7YZb1HAI0lcUPe99X6yl4hnFUJSlj6fyv71jnq2PpamoWSblkZkE2ZGFRK011Dh8FQjStwKiNXHwgX4+1p5Wx++VisF+PnydUavaQiBom2072u9fMsI4Uia9wY/c0TTJo53BagHBfhRy7AQ2n/ovzTw8YmGhQQD69fn91xQDxg8nAJHvaj8KISkcvcGKlk2lzVEfeB6n1btWHNYwlvyvlGgccdNS6Ylb6SrRzzjN+mD4KuCcLRrEcbCAI1RWKyYhZAmQZR78RKVCRMJfMTvoSE2rnsKzErgM3OEk9mM96uPHqTiRVM4Umlsjv6UxVrvnuFT6MOd+9SjnvObFJCPP91FwYH+6p5ivl4c+xhteHshvb/8ZfrnsmS6of21LChFJWW07JUXdP0vIyBZZpu8gHw691YOFBdSaeo0znU0Jid+Pk3b9x1i4bcJLXi5eEVA8MXu2X+Q1R62euoaXwDOkcWVDb1c87X9i30UHKTY8pKyCno4TnF4IQQR4WEU27UzrX9rISWNjKf0V2dQTHR7PtcIeH68J5z2Ogj/IWjUFPIbNFLxS0SEg0RY6Zql6gm14dxKoXh/YZrsly4a1jhaE9w0pIla8wyvCMiuvQeoX/wEVnvYfvXNv9Vf6pKyaDn1Gz6VBj/5Im/zCi6ov7gmbXk69RyQQJbO/bm06D6QVeynn+9Rz6jLidM57HuAi8K0xHa9kevOjE1MMBTFQJBxT9z/hkGJ/J7t7hnO+/ADnIXF/45BFDRpsQj1SjjXUZW5Q8nCqn5J+Wcb6dLkeCp5+Vmy550VAiKimLIS3sdxo1rHFhhAezMP0cx5qY5i1JeSeM3EdGgTwWqvbWSYesQ1wU1s1DVSORdbV2Bwfzx2gu6KT+QIBD5Ej6iWXHAdIp1HJybz766+5PDQEKqsquJ6U1ug+OJ/4LonQAAgyLin9hlkHdFQu75DeXC0wOQgZLU0b81hsf3CeQ5rL81KpIqNK1m7IDGmhfdVrVM8fxLP0+gB/+qnn89Sxie7ubz+3hYqKi5WfzWGYQHx99e3Z36+QsobiWox4NqtM4gwPt//PRUUFjsiEAgJCkCkg0E6X1BIcY9NZLWvpU/3LpynAWhr1YYdPIDO59UHhGPTrgMsCLgngHMLhxcFz4P2e3SO4nvg/FoIkwO/xLd3HEcqjNAUtdL1nP9QiwrS7/bsLENCAuBoo3hCvQKCzvcXLw8zofUNnAvMBs71FjKcxoCcyMmnFuFNKbptS96HcynPQcc8OSW5li9z/313UV6RGAgVCNm6zZ/TH0ZM5gQhQmCXPoQGmLB1W/fwtQDCcDa/kH7X+TpKfDiOC54HzwZwHqKKBUtX8L6WwEefJZ8YYco0QoC6vSifNYxPdBdF04h9xzlCiDD3U7r+TWXfBXgm9MvtPbtyGdgvlgL8a5xzIxj67NHRk5JfE2q5Wj1SFzhGsrO8Bb7SLjFRlLF8PMW0ieQvEoKAKGVu2iq2wXh2JO3WZmxinwLA6Zzx9CM0+/W11KZZKAtaiDA16FAkzGYsfptsr6+hO3vdTC9NfYYdV2dSlqzkawGuQxsb3vwrO7haPti0jSbMTuOcCsrS1R+xgGodX/geVf/Zy5qBgW/Sqj0FPviUksJHckxoiqozJ6n07Zc5AmK/RAgJ/Jfqu4eQT4trlWs1IDrrFduZZk0bpx5pOIZNDAZfvqSr4m3hQPTR55aOHG1wZ6sZRgwmIpK0OUncQSA02EbvZGzhugTCsmzOczyw+PLlIKPgXWAatu05SAMeHVdHmyBK2Xkki88F5y8U0ZrX5tYRDjBkYH9KmTTKkWcBGz7eodYUKjJ316TlhYawhEdS0Ji/KOtI1PfCFvtBT89ShENDxZ5taq3xMSwg0q66Kxgwb4HBhJM5fWKieqQud9/el/r37cbPhYHEMzr7GBi8LWtSeQBhDmCacJ4EWgXXJ82crx5R2P1VJnVsdg3XYdJGDrlbNxSGwEoNBWFFZKGl8sBOMeiKj4fw1z9umNusKTSF3z1DWcsw4rqqw/uV+hXAkIDgxZArkLbVVYm/91b17CsPhAPao778BCbbcsTXDcorqziJ5IzUONBESJDhPaUPA6BJMAcEP0tyLjffESYjkeYuTNYSd0cvh2OcJ5xnrU8Eh1NqBWgSa3QnrrvD2qGjWhOI6+xF9aftPaVeAYFwQFWPH5NAk54d5bY8NeJhPvdqonlEje+g5z9JYCJgryEo0rkE4cFB9Mn2hi/6cUaG1rqomkQPS5Aw5wbOawwMm5jycn0TUlGp8cCdCAlumH8iQzJtaIbBLlW/QHy9mPKvD2gMTPABONE2m7G1FBCU50fHO8wmoriTv2Rz3RlbgL+hPMoX+79jpxmgvVqOL9aRqGCJYnX+OXXPNdW5OUomVnIF14gYFpDGAvMDeh16NOuUQ31jG2xTJspgTs6VlnMdPoWz2nfF399dL2y+0nlIz3do25rrEr3rWzaPMPTFwwSt/OBT3bAYITGWQeC50WZM+zbqLwrWmFh2ToElOJzKt6zjujvKN62qWW0mfBHfW66cefeKgNzU8XoeIJggOGubP/vaZYciJMw6fY47EucihtdOko29/w7HV40Qc8JfFrgdGOQbMo8c5zAX18Bn0baFXAfS/kjVu+LVFe87vniADK87ml0TTCMmzHSZaIMQIquL9wbZImKCb6TFt1s/1hyM8Ckw2+tyfkaEuiUrXqnlswDfbn3VWm2gqfIKata5eIJXBAQDgwGSTho8//gnprJAYIDRsRgo5FpkRyJ0TPjjAK5LRg8b4nA6IURoZ9DwJL4WbaAtDMifRifR8nWbHaE35lu0EQ+EY/qCFdTtxracqpdzN3IyEckytI17AAzqA/fdyXVX4DxkbZFoQ7YU74V7oN2ECbM5qwvQ5m3dOtaZ38FCI+vNtzm0iMxvIO2OBUa8ul1sL700mqoPf8W/M0J7YHZY+2cVzcJroh98HF9mHtadl6oPt0sOMQEGpJO6873XdKe8MTiDR01xdCrCxR92rec6wACiA/FVSg0BIcDXB8GB6pW/4Yu/Mbo1RxbOICWOtLU274KoAxoK16NNmBV0Du5x6nwBLZw2ptbyREzotQoL4XMABq5Ak1nFM8n3wG/XNg+jLe8uFgOjaBQ8A+Y2YF6cwbMXlymmEDPG2ntg6mDzqkUU1cYpqSU0Q/GS6WQ/90stzcDIcBY4p+BtIWSb+EqdkDi67xBH/8jxwztgDipSmM7UeS/wb0aoV4PIjrpc4EMgeYUBlF8nEmzYoqOhOVCHYMG0LJw1Wb2yNogyBt7Ww5HcAugMeT3axKDgHrgXMqZa4QBfrl/K58icB+rapJ98Zww2BjU15XmHcDiDZ8AiI9kW3gXPgyKFA7+hnr5kpnvhgNnAfAwcTmehkEVFpuCRNHOVL5n93AjuH4B3Qd9g3gomt+N17fi4UdwKCDpYFuQQjABNoHcNkldIR0Oa8QLoOJyLgYAWQEFyCwuk63SkBnwBU594kF8e7eB6tIP2ZDtY8IN7yfS6FggrEmQykSbbkEW20bPL9bRtbapuvgUaCguKkD/B/dGWvF6GyvgN96uTadUIB2Z0sU6kyZ/TeB0r4LkXCIu2CAHyu+shso1PcZleB/ggJjz+gKM/8E7Q0EXCyb+1d3f1LGO4NTGwn1rmiy/a1ZyEBOsMpie/qu4prEx1mr3UAFu/d99BOvTDMXYAIdl4eFfpancg2YRJRERFCEOjWrcSgxlFXTrFGG4HpnHXnv3CBJ7kNvAsvbp3oV49bnErGFoTc+DkWTq9YzWbX5hRhNbZZ5UwNbpDFEdOWtOMeZeyjat5IZA9N5sn3Fg4xKBj/aqE52d+yaLqs6fIXpBLltAI8mnZhnyv6+RWmzkj3+3rzENUdKmY3y11ttDMBq8H5p9eeoCzgJzY+o6uxnMAjTF/kvIXeDLRJcwKNIZWOK4mvJ4H+S1TeewIVWcfV/wJOKNIkwvtERA3VD3j6sMUEC9isbnIKMuFQlcppoB4iCcrtJCvsN7Uh+wXcoRgVPLWr/+wBvkE3sb0QTwAybC0NZ8QBYuBPXJSOKY7jfkgKkh8wfm0tr/B6//OoaGYAuIBzn+KoRfd/doxBcREF9MHMdHFFBATXUwBMdHFFBATXUwBMdHFFBATXUwBMdGB6H/0kRmiuZe0ZgAAAABJRU5ErkJggg==;imageBorder=default;" vertex="1" parent="1">
          <mxGeometry x="422" y="100" width="136" height="53" as="geometry" />
        </mxCell>
        <mxCell id="bdOjsI9Eu3mLzu6R5T6B-19" value="No" style="edgeStyle=orthogonalEdgeStyle;rounded=0;orthogonalLoop=1;jettySize=auto;html=1;exitX=1;exitY=0.5;exitDx=0;exitDy=0;entryX=0;entryY=0.5;entryDx=0;entryDy=0;fontSize=12;startArrow=none;startFill=0;" edge="1" parent="1" source="bdOjsI9Eu3mLzu6R5T6B-16" target="bdOjsI9Eu3mLzu6R5T6B-18">
          <mxGeometry relative="1" as="geometry" />
        </mxCell>
        <mxCell id="bdOjsI9Eu3mLzu6R5T6B-16" value="found?" style="rhombus;whiteSpace=wrap;html=1;fontSize=12;" vertex="1" parent="1">
          <mxGeometry x="450" y="300" width="80" height="80" as="geometry" />
        </mxCell>
        <mxCell id="bdOjsI9Eu3mLzu6R5T6B-21" style="edgeStyle=orthogonalEdgeStyle;rounded=0;orthogonalLoop=1;jettySize=auto;html=1;exitX=0.5;exitY=1;exitDx=0;exitDy=0;entryX=0.5;entryY=0;entryDx=0;entryDy=0;fontSize=12;startArrow=none;startFill=0;" edge="1" parent="1" source="bdOjsI9Eu3mLzu6R5T6B-27" target="bdOjsI9Eu3mLzu6R5T6B-20">
          <mxGeometry relative="1" as="geometry" />
        </mxCell>
        <mxCell id="bdOjsI9Eu3mLzu6R5T6B-28" style="edgeStyle=orthogonalEdgeStyle;rounded=0;orthogonalLoop=1;jettySize=auto;html=1;exitX=1;exitY=0.5;exitDx=0;exitDy=0;entryX=0;entryY=0.5;entryDx=0;entryDy=0;fontSize=12;startArrow=none;startFill=0;" edge="1" parent="1" source="bdOjsI9Eu3mLzu6R5T6B-18" target="bdOjsI9Eu3mLzu6R5T6B-27">
          <mxGeometry relative="1" as="geometry" />
        </mxCell>
        <mxCell id="bdOjsI9Eu3mLzu6R5T6B-18" value="Create Contact" style="rounded=1;whiteSpace=wrap;html=1;fontSize=12;" vertex="1" parent="1">
          <mxGeometry x="600" y="310" width="120" height="60" as="geometry" />
        </mxCell>
        <mxCell id="bdOjsI9Eu3mLzu6R5T6B-23" style="edgeStyle=orthogonalEdgeStyle;rounded=0;orthogonalLoop=1;jettySize=auto;html=1;exitX=0.5;exitY=1;exitDx=0;exitDy=0;entryX=0.5;entryY=0;entryDx=0;entryDy=0;fontSize=12;startArrow=none;startFill=0;" edge="1" parent="1" source="bdOjsI9Eu3mLzu6R5T6B-20" target="bdOjsI9Eu3mLzu6R5T6B-22">
          <mxGeometry relative="1" as="geometry" />
        </mxCell>
        <mxCell id="bdOjsI9Eu3mLzu6R5T6B-20" value="Wait for 5 seconds&lt;br&gt;&lt;font style=&quot;font-size: 10px;&quot;&gt;(give time to HS to link auto-defined company)&lt;/font&gt;" style="rounded=1;whiteSpace=wrap;html=1;fontSize=12;" vertex="1" parent="1">
          <mxGeometry x="760" y="400" width="120" height="60" as="geometry" />
        </mxCell>
        <mxCell id="bdOjsI9Eu3mLzu6R5T6B-26" style="edgeStyle=orthogonalEdgeStyle;rounded=0;orthogonalLoop=1;jettySize=auto;html=1;exitX=0.5;exitY=1;exitDx=0;exitDy=0;entryX=0.5;entryY=0;entryDx=0;entryDy=0;fontSize=12;startArrow=none;startFill=0;" edge="1" parent="1" source="bdOjsI9Eu3mLzu6R5T6B-22" target="bdOjsI9Eu3mLzu6R5T6B-25">
          <mxGeometry relative="1" as="geometry" />
        </mxCell>
        <mxCell id="bdOjsI9Eu3mLzu6R5T6B-22" value="Get Contact by id" style="rounded=1;whiteSpace=wrap;html=1;fontSize=12;" vertex="1" parent="1">
          <mxGeometry x="760" y="490" width="120" height="60" as="geometry" />
        </mxCell>
        <mxCell id="bdOjsI9Eu3mLzu6R5T6B-29" value="yes" style="edgeStyle=orthogonalEdgeStyle;rounded=0;orthogonalLoop=1;jettySize=auto;html=1;exitX=1;exitY=0.5;exitDx=0;exitDy=0;entryX=1;entryY=0.5;entryDx=0;entryDy=0;fontSize=12;startArrow=none;startFill=0;" edge="1" parent="1" source="bdOjsI9Eu3mLzu6R5T6B-25" target="bdOjsI9Eu3mLzu6R5T6B-10">
          <mxGeometry x="-0.9699" y="10" relative="1" as="geometry">
            <Array as="points">
              <mxPoint x="970" y="620" />
              <mxPoint x="970" y="55" />
            </Array>
            <mxPoint as="offset" />
          </mxGeometry>
        </mxCell>
        <mxCell id="bdOjsI9Eu3mLzu6R5T6B-25" value="Company&lt;br&gt;associated?" style="rhombus;whiteSpace=wrap;html=1;fontSize=12;" vertex="1" parent="1">
          <mxGeometry x="780" y="580" width="80" height="80" as="geometry" />
        </mxCell>
        <mxCell id="bdOjsI9Eu3mLzu6R5T6B-27" value="Update Member with HS id" style="rounded=1;whiteSpace=wrap;html=1;fontSize=12;" vertex="1" parent="1">
          <mxGeometry x="760" y="310" width="120" height="60" as="geometry" />
        </mxCell>
      </root>
    </mxGraphModel>
  </diagram>
</mxfile>
